<svg width="112" height="18" viewBox="0 0 112 18" fill="none" xmlns="http://www.w3.org/2000/svg">
<path fill-rule="evenodd" clip-rule="evenodd" d="M33.8299 13.5084C33.1757 13.2206 32.5308 12.8972 31.8953 12.5383L30 15.4206C30.6654 15.8019 31.3888 16.1514 32.1701 16.4692C32.9514 16.7869 33.7738 17.0598 34.6374 17.2879C35.5009 17.5159 36.4037 17.6916 37.3458 17.815C38.2879 17.9383 39.2523 18 40.2393 18C41.7346 18 43.0916 17.8598 44.3103 17.5794C45.529 17.2991 46.5701 16.8879 47.4336 16.3458C48.2972 15.8037 48.9626 15.1383 49.4299 14.3495C49.8972 13.5607 50.1308 12.6617 50.1308 11.6523C50.1308 10.8972 49.9925 10.215 49.7159 9.60561C49.4393 8.99626 49.0318 8.47664 48.4935 8.04673C47.9551 7.61682 47.2879 7.28598 46.4916 7.05421C45.6953 6.82243 44.7813 6.70654 43.7495 6.70654C43.2037 6.70654 42.6411 6.73458 42.0617 6.79065C41.4822 6.84673 40.914 6.90841 40.357 6.9757L39.5411 7.07243L38.7645 7.16075C38.2598 7.21682 37.8131 7.24486 37.4243 7.24486C36.4598 7.24486 35.7421 7.07851 35.271 6.74579C34.8 6.41308 34.5645 5.98505 34.5645 5.46168C34.5645 5.19252 34.6374 4.9215 34.7832 4.6486C34.929 4.3757 35.1888 4.12897 35.5626 3.90841C35.9365 3.68785 36.4393 3.50654 37.071 3.36449C37.7028 3.22243 38.5084 3.1514 39.4879 3.1514C40.1757 3.1514 40.8505 3.19065 41.5121 3.26916C42.1738 3.34766 42.8149 3.4542 43.4355 3.58878C44.0561 3.72337 44.6505 3.88224 45.2187 4.06542C45.7869 4.2486 46.3178 4.4486 46.8112 4.66542L48.3701 1.79439C47.772 1.52523 47.1252 1.28038 46.4299 1.05981C45.7346 0.839251 45.0112 0.650468 44.2598 0.493458C43.5084 0.336448 42.7365 0.214954 41.9439 0.128972C41.1514 0.0429902 40.3626 0 39.5776 0C38.4935 0 37.5271 0.0766347 36.6785 0.229907C35.8299 0.383178 35.0822 0.594391 34.4355 0.863551C33.7888 1.13271 33.2374 1.45233 32.7813 1.82243C32.3252 2.19253 31.9533 2.59252 31.6654 3.02243C31.3776 3.45234 31.1682 3.9028 31.0374 4.37383C30.9065 4.84486 30.8411 5.31962 30.8411 5.79813C30.8411 6.60561 31.0056 7.31215 31.3346 7.91776C31.6636 8.52337 32.1065 9.02804 32.6636 9.43178C33.2206 9.83552 33.8598 10.1383 34.5813 10.3402C35.3028 10.5421 36.0561 10.643 36.8411 10.643C37.3122 10.643 37.8149 10.6112 38.3495 10.5477C38.8841 10.4841 39.4262 10.415 39.9757 10.3402L40.7958 10.2322L41.6075 10.1327C42.1458 10.0692 42.6579 10.0374 43.1439 10.0374C44.2505 10.0374 45.0692 10.2224 45.6 10.5925C46.1308 10.9626 46.3963 11.4654 46.3963 12.1009C46.3963 12.4972 46.2897 12.8635 46.0766 13.2C45.8635 13.5365 45.5234 13.8262 45.0561 14.0692C44.5888 14.3122 43.9851 14.5028 43.2449 14.6411C42.5047 14.7794 41.6075 14.8486 40.5533 14.8486C39.6785 14.8486 38.8542 14.7963 38.0804 14.6916C37.3065 14.5869 36.5682 14.4355 35.8654 14.2374C35.1626 14.0393 34.4841 13.7963 33.8299 13.5084ZM0 0.224243H3.57757V17.7532H0V0.224243ZM8.08594 0.224243H11.6411L22.5644 5.94387V0.224243H26.1196V17.7532H22.5644V9.71209L11.6411 4.02611V17.7532H8.08594V0.224243ZM53.3832 0.224243H56.9383V9.88032C56.9383 10.6728 57.0467 11.3775 57.2636 11.9943C57.4804 12.6112 57.8037 13.1327 58.2336 13.5588C58.6636 13.985 59.1963 14.3084 59.8318 14.5289C60.4673 14.7495 61.2075 14.8598 62.0523 14.8598C62.8897 14.8598 63.628 14.7495 64.2673 14.5289C64.9065 14.3084 65.4411 13.985 65.871 13.5588C66.3009 13.1327 66.6243 12.6112 66.8411 11.9943C67.0579 11.3775 67.1664 10.6728 67.1664 9.88032V0.224243H70.7215V10.3065C70.7215 11.4579 70.5271 12.5046 70.1383 13.4467C69.7495 14.3887 69.1851 15.1962 68.4449 15.8691C67.7047 16.542 66.7981 17.0616 65.7252 17.428C64.6523 17.7943 63.428 17.9775 62.0523 17.9775C60.6766 17.9775 59.4523 17.7943 58.3794 17.428C57.3065 17.0616 56.4 16.542 55.6598 15.8691C54.9196 15.1962 54.3551 14.3887 53.9664 13.4467C53.5776 12.5046 53.3832 11.4579 53.3832 10.3065V0.224243ZM83.9663 0.224243H75.0504V17.7532H78.6056V12.7626L84.0897 12.7738L87.3869 17.7532H91.7383L87.9252 12.1457C88.5906 11.8915 89.17 11.5719 89.6635 11.1869C90.157 10.8018 90.5663 10.3626 90.8915 9.8691C91.2168 9.37564 91.4579 8.83546 91.6149 8.24854C91.7719 7.66162 91.8504 7.04294 91.8504 6.39247C91.8504 5.42798 91.6915 4.56443 91.3738 3.80181C91.056 3.03919 90.5719 2.39247 89.9214 1.86163C89.271 1.33078 88.4523 0.925179 87.4654 0.644804C86.4784 0.364429 85.3121 0.224243 83.9663 0.224243ZM84.0561 9.68967C84.729 9.68967 85.3177 9.61117 85.8224 9.45416C86.3271 9.29715 86.7495 9.07659 87.0897 8.79248C87.4299 8.50836 87.6841 8.16257 87.8523 7.75509C88.0205 7.34762 88.1047 6.89341 88.1047 6.39248C88.1047 5.41303 87.7682 4.65603 87.0953 4.12145C86.4224 3.58687 85.4093 3.31958 84.0561 3.31958H78.6056V9.68967H84.0561ZM110.983 0.224243H96.056V17.7532H111.219V14.6467H99.6112V9.76817H109.682V6.84107H99.6112V3.342H110.983V0.224243Z" fill="#2C2830"/>
</svg>
